<?xml version="1.0" standalone="no"?>
<!DOCTYPE svg PUBLIC "-//W3C//DTD SVG 20010904//EN"
 "http://www.w3.org/TR/2001/REC-SVG-20010904/DTD/svg10.dtd">
<svg version="1.0" xmlns="http://www.w3.org/2000/svg"
 width="48" height="48" viewBox="0 0 1024 1024"
 preserveAspectRatio="xMidYMid meet">

<g transform="translate(0.000000,1024.000000) scale(0.100000,-0.100000)"
fill="#000000" stroke="none">
<path fill="#836edd" d="M0 5120 l0 -5120 5120 0 5120 0 0 5120 0 5120 -5120 0 -5120 0 0
-5120z m5505 3340 c77 -11 154 -25 170 -30 17 -5 64 -18 105 -30 154 -43 302
-104 430 -177 66 -37 201 -124 231 -148 14 -11 41 -31 60 -45 55 -40 246 -229
313 -310 204 -246 367 -569 431 -855 10 -44 22 -84 26 -88 3 -5 35 -13 70 -17
123 -17 248 -51 354 -95 54 -22 199 -96 205 -104 3 -4 41 -29 85 -56 218 -133
420 -351 571 -615 82 -142 116 -217 163 -357 68 -204 84 -306 85 -548 1 -218
-5 -277 -53 -496 -41 -190 -178 -473 -313 -647 -79 -101 -95 -120 -188 -212
-129 -130 -250 -222 -415 -317 -119 -69 -136 -78 -257 -127 -128 -53 -153 -54
-180 -9 -9 15 -53 66 -98 111 -44 46 -80 86 -80 89 0 3 -9 16 -20 30 -36 45
-24 70 30 65 8 -1 38 -3 65 -6 93 -8 300 69 475 178 36 22 67 43 70 46 3 3 32
25 65 50 87 66 232 214 307 315 21 28 41 55 45 60 34 43 123 208 123 227 0 6
11 34 24 62 32 68 71 224 92 366 15 108 15 255 -1 355 -3 17 -7 46 -9 65 -2
19 -10 60 -16 90 -7 30 -13 62 -15 70 -9 51 -19 81 -26 86 -5 3 -9 14 -9 25 0
19 -38 110 -50 119 -4 3 -10 17 -13 32 -4 15 -14 33 -22 42 -8 8 -15 21 -15
28 0 7 -9 24 -20 38 -11 14 -20 29 -20 33 -1 40 -211 282 -314 360 -15 12 -42
34 -60 48 -74 61 -289 182 -411 231 -140 56 -262 90 -390 108 -131 18 -121 11
-128 86 -10 100 -57 285 -89 347 -5 10 -6 21 -4 26 3 4 -1 17 -9 27 -8 10 -15
27 -15 36 0 30 -126 265 -196 365 -65 94 -242 282 -313 333 -19 14 -49 37 -65
51 -80 67 -333 204 -461 249 -122 43 -142 49 -223 70 -524 132 -1095 44 -1554
-241 -208 -129 -435 -351 -560 -549 -41 -65 -148 -282 -177 -360 -25 -68 -58
-174 -66 -217 -7 -36 0 -33 -160 -68 -304 -67 -499 -164 -709 -351 -82 -73
-203 -206 -245 -267 -9 -13 -36 -53 -59 -88 -24 -35 -71 -120 -104 -189 -32
-69 -64 -133 -69 -142 -5 -10 -9 -26 -9 -36 0 -10 -4 -22 -8 -27 -5 -6 -15
-37 -22 -70 -7 -33 -16 -73 -20 -90 -40 -144 -44 -456 -10 -625 71 -348 217
-601 496 -860 44 -41 107 -93 140 -115 32 -22 64 -44 70 -50 6 -5 41 -28 77
-50 36 -22 69 -47 72 -55 4 -8 3 -93 -1 -187 -5 -128 -10 -173 -19 -173 -26 0
-204 95 -310 166 -128 85 -193 141 -327 279 -83 86 -228 264 -228 279 0 3 -16
31 -36 61 -65 103 -152 287 -195 415 -80 235 -111 493 -91 748 12 157 19 197
58 355 31 124 49 179 80 243 13 28 24 54 24 58 0 28 181 345 226 396 7 8 40
47 73 86 240 287 548 481 919 580 7 2 14 4 17 5 89 24 88 23 110 90 43 125
201 424 278 524 4 6 30 42 59 80 106 146 341 354 543 481 83 52 353 186 410
203 22 7 49 17 60 22 28 13 144 47 240 70 67 16 229 42 395 63 86 10 401 -3
535 -24z m-1520 -4836 c19 -14 20 -27 20 -202 0 -178 1 -192 29 -282 91 -298
238 -519 461 -695 125 -98 282 -187 355 -201 16 -4 30 -10 30 -13 0 -4 25 -15
56 -25 55 -17 69 -21 134 -32 19 -3 53 -12 76 -19 69 -23 288 -35 432 -25 410
29 826 229 1020 490 40 54 85 170 98 252 7 40 26 64 44 53 6 -3 17 -22 25 -41
8 -20 55 -84 103 -142 92 -111 112 -140 112 -166 0 -33 -112 -179 -225 -291
-311 -310 -708 -473 -1200 -492 -500 -19 -940 119 -1297 405 -195 156 -372
405 -464 651 -50 134 -71 170 -102 182 -15 6 -94 15 -177 19 -82 5 -151 9
-152 9 -8 2 -31 74 -37 116 -4 28 -12 65 -18 84 -15 47 -2 54 119 70 165 22
271 69 360 162 44 46 93 114 93 129 0 5 7 15 15 24 17 16 52 9 90 -20z"/>
</g>
</svg>
